<svg width="24" height="24" viewBox="0 0 24 24" fill="none" xmlns="http://www.w3.org/2000/svg">
  <path opacity="0.1" fill-rule="evenodd" clip-rule="evenodd" d="M24 0H0V24H24V0ZM22 2H2V22H22V2Z" fill="white"/>
  <path d="M17 16V16.4142L17.2929 16.7071L18.5858 18H5.41421L6.70711 16.7071L7 16.4142V16V10C7 7.23858 9.23858 5 12 5C14.7614 5 17 7.23858 17 10V16Z" stroke="#1A1D1D" stroke-width="2"/>
  <path d="M10.5 3.5C10.5 2.67157 11.1716 2 12 2C12.8284 2 13.5 2.67157 13.5 3.5V5H10.5V3.5Z" fill="#1A1D1D"/>
  <path d="M14 20C14 21.1046 13.1046 22 12 22C10.8954 22 10 21.1046 10 20L14 20Z" fill="#1A1D1D"/>
</svg>
