<svg width="20" height="20" viewBox="0 0 20 20" fill="none" xmlns="http://www.w3.org/2000/svg">
    <path d="M9.10262 0.824955C9.46895 0.0799726 10.5311 0.0799741 10.8974 0.824956L13.3992 5.91277L19.0009 6.72974C19.82 6.84919 20.1476 7.85522 19.5559 8.43408L15.5 12.4021L16.4567 18.0005C16.5964 18.8179 15.7377 19.4403 15.0043 19.0533L10 16.4128L4.99571 19.0533C4.2623 19.4403 3.40364 18.8179 3.54332 18.0005L4.5 12.4021L0.444076 8.43408C-0.147604 7.85521 0.18 6.84919 0.999083 6.72974L6.60081 5.91277L9.10262 0.824955Z" fill="#D9D9D9"/>
    <path d="M12.5018 6.35404L12.7341 6.82635L13.2549 6.9023L18.8566 7.71927L14.8007 11.6873L14.426 12.0539L14.5143 12.5706L15.471 18.1689L10.4667 15.5283L10 15.2821L9.53333 15.5283L4.52903 18.1689L5.48571 12.5706L5.57401 12.0539L5.19932 11.6873L1.1434 7.71927L6.74513 6.9023L7.26594 6.82635L7.49819 6.35404L10 1.26622L12.5018 6.35404Z" stroke="#D9D9D9" stroke-width="2"/>
</svg>
