<svg width="28" height="20" viewBox="0 0 28 20" fill="none" xmlns="http://www.w3.org/2000/svg">
  <rect x="3.5" y="14.5" width="11" height="0.999999" rx="0.5" fill="white" stroke="white" stroke-width="0.999999"/>
  <rect x="13.5" y="5.5" width="11" height="0.999999" rx="0.5" fill="white" stroke="white" stroke-width="0.999999"/>
  <rect x="21.5" y="14.5" width="3" height="1" rx="0.5" fill="white" stroke="white"/>
  <rect x="3.5" y="5.5" width="3" height="1" rx="0.5" fill="white" stroke="white"/>
  <path d="M7 6C7 4.34315 8.34315 3 10 3C11.6569 3 13 4.34315 13 6C13 7.65685 11.6569 9 10 9C8.34314 9 7 7.65685 7 6Z" stroke="white" stroke-width="2"/>
  <path d="M21 15C21 16.6569 19.6569 18 18 18C16.3431 18 15 16.6569 15 15C15 13.3431 16.3431 12 18 12C19.6569 12 21 13.3431 21 15Z" stroke="white" stroke-width="2"/>
  <path d="M21 15C21 16.6569 19.6569 18 18 18C16.3431 18 15 16.6569 15 15C15 13.3431 16.3431 12 18 12C19.6569 12 21 13.3431 21 15Z" stroke="white" stroke-width="2"/>
</svg>
